<svg xmlns="http://www.w3.org/2000/svg" width="70" height="56" fill="none"><g fill="#fff"><path d="m11.12 19.12 12.347 7.078 11.121-6.373L0 0v39.65l11.12-6.376V19.12Z"/><path d="m58.055 19.12-12.348 7.078-11.121-6.373L69.174 0v39.65l-11.119-6.376V19.12ZM0 45.213h2.638l2.922 4.56 2.923-4.56h2.638v10.786H8.69v-6.942l-3.13 4.607h-.063l-3.098-4.56v6.895H0V45.213ZM17.185 45.213h2.249l4.753 10.786h-2.551l-.98-2.259h-4.76L14.916 56H12.43l4.753-10.787h.002Zm2.6 6.433-1.508-3.582-1.509 3.582h3.017ZM25.516 45.213h5.145c1.43 0 2.542.386 3.282 1.094.627.6.965 1.49.965 2.508v.03c0 1.74-.98 2.877-2.413 3.386L35.245 56h-2.894l-2.413-3.367h-1.946v3.367h-2.476V45.213Zm4.986 5.322c1.205 0 1.898-.658 1.898-1.567v-.03c0-1.017-.74-1.584-1.947-1.584h-2.461v3.181h2.51ZM37.07 45.213h8.365v2.111h-5.941v2.188h5.228v2.111h-5.228v2.265h6.02v2.111H37.07V45.213ZM47.664 45.213h2.44v8.628h5.446V56h-7.886V45.213ZM57.281 45.213h2.44v8.628h5.447V56H57.28V45.213ZM66.734 45.213h2.44v10.786h-2.44V45.213Z"/></g></svg>